<svg viewBox="0 0 64 64" xmlns="http://www.w3.org/2000/svg">
    <defs>
        <linearGradient id="branchGrad" x1="0%" y1="0%" x2="100%" y2="100%">
            <stop offset="0%" style="stop-color:#8C3AED;stop-opacity:1"/>
            <stop offset="100%" style="stop-color:#A855F7;stop-opacity:1"/>
        </linearGradient>
        <linearGradient id="circleGrad" x1="0%" y1="0%" x2="100%" y2="100%">
            <stop offset="0%" style="stop-color:#000;stop-opacity:0"/>
            <stop offset="100%" style="stop-color:#A855F7;stop-opacity:1"/>
        </linearGradient>
        <linearGradient id="commitGrad" x1="0%" y1="0%" x2="100%" y2="100%">
            <stop offset="0%" style="stop-color:#10B981;stop-opacity:1"/>
            <stop offset="100%" style="stop-color:#14B8A6;stop-opacity:1"/>
        </linearGradient>
    </defs>

    <!-- Subtle background -->
    <circle cx="32" cy="32" r="30" fill="url(#circleGrad)" opacity="0.2"/>

    <!-- Git branch with gentle curves -->
    <g transform="translate(-4, 0)">
        <!-- Main branch line -->
        <line x1="18" y1="20" x2="18" y2="44" stroke="url(#branchGrad)" stroke-width="2.5" stroke-linecap="round"/>

        <!-- Branch line with curve -->
        <path d="M 18 28 Q 24 28, 28 32 L 28 40" stroke="url(#branchGrad)" stroke-width="2.5" stroke-linecap="round"
              fill="none"/>

        <!-- Branch nodes -->
        <circle cx="18" cy="20" r="4" fill="url(#branchGrad)"/>
        <circle cx="18" cy="44" r="4" fill="url(#branchGrad)"/>
        <circle cx="28" cy="40" r="4" fill="url(#branchGrad)"/>
    </g>


    <!-- Commit message card -->
    <g transform="translate(36, 22)">
        <!-- Subtle shadow -->
        <rect x="0.5" y="0.5" width="20" height="20" rx="2" fill="#000" opacity="0.1"/>
        <!-- Card with gradient -->
        <rect x="0" y="0" width="20" height="20" rx="2" fill="url(#commitGrad)" opacity="0.85"/>
        <!-- Text lines -->
        <line x1="3" y1="5" x2="13" y2="5" stroke="#FFF" stroke-width="1.5" stroke-linecap="round" opacity="0.9"/>
        <line x1="3" y1="8.5" x2="11" y2="8.5" stroke="#FFF" stroke-width="1.5" stroke-linecap="round" opacity="0.75"/>
        <line x1="3" y1="12" x2="8" y2="12" stroke="#FFF" stroke-width="1.5" stroke-linecap="round" opacity="0.6"/>
    </g>

    <!-- Arrow indicating automation -->
    <g transform="translate(26, 30)">
        <path d="M 0 0 L 10 0 M 7 -3 L 10 0 L 7 3" opacity="0.5" stroke="#000981" stroke-width="2.5"
              stroke-linecap="round" stroke-linejoin="round" fill="none"/>
    </g>

</svg>